<svg xmlns:xlink="http://www.w3.org/1999/xlink" xmlns="http://www.w3.org/2000/svg" version="1.1" viewBox="0 0 153 144" height="144px" width="153px">
    <title> 备份 7</title>
    <defs>
        <linearGradient id="linearGradient-1" y2="-7.86526499%" x2="52.0445751%" y1="100%" x1="52.0445751%">
            <stop offset="0%" stop-opacity="0" stop-color="#F3F4F6"></stop>
            <stop offset="100%" stop-color="#E4E6E9"></stop>
        </linearGradient>
        <linearGradient id="linearGradient-2" y2="57.1210666%" x2="30.5881986%" y1="33.1277153%" x1="-6.81037759%">
            <stop offset="0%" stop-color="#F4F4F6"></stop>
            <stop offset="100%" stop-color="#E4E6E9"></stop>
        </linearGradient>
        <linearGradient id="linearGradient-3" y2="24.6181883%" x2="50%" y1="116.239454%" x1="50%">
            <stop offset="0%" stop-color="#F1F1F2"></stop>
            <stop offset="100%" stop-color="#DEDFE1"></stop>
        </linearGradient>
        <linearGradient id="linearGradient-4" y2="63.9040034%" x2="94.3337496%" y1="39.4056837%" x1="42.636651%">
            <stop offset="0%" stop-color="#EEEEEE"></stop>
            <stop offset="100%" stop-color="#D8D8D8"></stop>
        </linearGradient>
        <linearGradient id="linearGradient-5" y2="63.3824379%" x2="94.3337496%" y1="39.8030966%" x1="42.636651%">
            <stop offset="0%" stop-color="#EEEEEE"></stop>
            <stop offset="100%" stop-color="#D8D8D8"></stop>
        </linearGradient>
        <linearGradient id="linearGradient-6" y2="55.5512595%" x2="94.3337496%" y1="45.7701536%" x1="42.636651%">
            <stop offset="0%" stop-color="#EEEEEE"></stop>
            <stop offset="100%" stop-color="#D8D8D8"></stop>
        </linearGradient>
    </defs>
    <g fill-rule="evenodd" fill="none" stroke-width="1" stroke="none" id="缺省页">
        <g id="编组-23" transform="translate(-853.000000, -261.000000)">
            <g transform="translate(874.000000, 264.000000)">
                <path fill-rule="nonzero" fill="#B4B6BA" id="购物车空空如也~" d="M24.8390508,136.879458 C25.6062372,136.879458 26.0272542,136.486508 26.1208135,135.719322 C26.2143728,134.952136 26.2611525,132.912542 26.2611525,129.600542 L23.2485423,129.600542 C23.3701695,129.226305 23.4730847,128.824 23.5479322,128.412339 L22.6871864,128.300068 C22.4813559,129.385356 22.1071186,130.320949 21.5551186,131.106847 L21.5551186,128.646237 L18.2337627,128.646237 L18.2337627,134.605966 L19.0290169,134.605966 L19.0290169,129.460203 L20.7692203,129.460203 L20.7692203,134.605966 L21.5551186,134.605966 L21.5551186,131.415593 L21.9854915,131.967593 C22.3410169,131.518508 22.6497627,131.013288 22.9117288,130.461288 L25.3910508,130.461288 C25.3723389,133.268068 25.3442711,134.905356 25.2881356,135.391864 C25.232,135.859661 25.0355254,136.093559 24.7080678,136.093559 C24.2964067,136.093559 23.8192542,136.074847 23.2766101,136.04678 L23.4824406,136.842034 C24.128,136.860746 24.5770847,136.879458 24.8390508,136.879458 Z M18.4115254,136.982373 C19.0477288,136.664271 19.5061695,136.205831 19.7868474,135.625763 C20.0768813,135.008271 20.2359322,134.166237 20.254644,133.118373 L20.254644,130.049627 L19.5248813,130.049627 L19.5248813,133.118373 C19.4968135,133.922983 19.3751864,134.577898 19.1693559,135.083119 C18.9541695,135.550915 18.5425084,135.934508 17.9437288,136.243254 L18.4115254,136.982373 Z M24.4461017,135.232814 L25.1665084,134.867932 C24.9045423,133.997831 24.6332203,133.19322 24.3525423,132.463458 L23.6789152,132.790915 C23.8098983,133.127729 23.9315254,133.49261 24.0531525,133.885559 C23.6602033,133.979119 23.2391864,134.053966 22.7994576,134.100746 C23.154983,133.370983 23.5198644,132.482169 23.8753898,131.424949 L23.0707796,131.153627 C22.5374915,133.015458 22.1164745,134.025898 21.8170847,134.175593 L21.9574237,134.94278 C22.7901017,134.858576 23.5572881,134.736949 24.2683389,134.587254 C24.3244745,134.793085 24.3899661,135.008271 24.4461017,135.232814 Z M21.3118644,136.907525 L21.9574237,136.280678 C21.6018983,135.803525 21.1621695,135.326373 20.6569491,134.839864 L20.0955932,135.391864 C20.6195254,135.934508 21.0311864,136.439729 21.3118644,136.907525 Z M34.6658983,136.916881 C35.6108474,136.916881 36.1347796,136.514576 36.2470508,135.709966 C36.3406101,134.961492 36.3873898,132.978034 36.3873898,129.759593 L32.8227796,129.759593 C32.9350508,129.385356 33.0379661,128.973695 33.1315254,128.52461 L32.2894915,128.309424 C32.0462373,129.684746 31.6252203,130.741966 31.0357966,131.481085 L31.6907118,132.033085 C31.9994576,131.658847 32.2707796,131.181695 32.5140339,130.620339 L32.9818305,130.620339 C32.635661,132.313763 31.9994576,133.548746 31.0825762,134.334644 L31.6532881,134.998915 C32.6824406,134.082034 33.3841356,132.622508 33.7677288,130.620339 L34.3103729,130.620339 C34.1419661,131.967593 33.88,133.043525 33.5431864,133.857492 C33.1502373,134.718237 32.5795254,135.49478 31.812339,136.187119 L32.364339,136.888814 C33.2063729,136.102915 33.8519322,135.223458 34.2823051,134.231729 C34.6378305,133.342915 34.9091525,132.136 35.114983,130.620339 L35.536,130.620339 C35.5172881,133.28678 35.4798644,134.84922 35.4237288,135.317017 C35.3488813,135.859661 35.0494915,136.130983 34.5349152,136.130983 C34.3103729,136.130983 34.0577627,136.112271 33.7583729,136.084203 L33.9642034,136.879458 C34.3010169,136.898169 34.5349152,136.916881 34.6658983,136.916881 Z M30.5305762,136.963661 L30.5305762,133.876203 C30.7457627,133.782644 30.9609491,133.679729 31.1761356,133.576814 L31.1761356,132.73478 C30.9703051,132.837695 30.7551186,132.94061 30.5305762,133.043525 L30.5305762,131.069424 L31.2135593,131.069424 L31.2135593,130.208678 L30.5305762,130.208678 L30.5305762,128.337492 L29.6698305,128.337492 L29.6698305,130.208678 L29.183322,130.208678 C29.2207457,129.843797 29.2488135,129.469559 29.2675254,129.095322 L28.4816271,129.039186 C28.4442034,130.124475 28.2851525,131.162983 28.0044745,132.154712 L28.7810169,132.369898 C28.8932881,131.948881 28.9962034,131.518508 29.0710508,131.069424 L29.6698305,131.069424 L29.6698305,133.389695 C29.1646101,133.567458 28.6406779,133.707797 28.1167457,133.820068 L28.3225762,134.680814 C28.7810169,134.540475 29.2301017,134.39078 29.6698305,134.222373 L29.6698305,136.963661 L30.5305762,136.963661 Z M43.08,137.019797 L43.08,135.083119 L46.5416949,135.083119 L46.5416949,134.222373 L43.08,134.222373 L43.08,133.034169 L45.8961356,133.034169 L45.8961356,132.220203 L43.08,132.220203 L43.08,130.966508 L42.1724746,130.966508 L42.1724746,132.220203 L40.0861017,132.220203 C40.5258305,131.658847 40.9374915,131.032 41.3117288,130.320949 L46.4013559,130.320949 L46.4013559,129.460203 L41.7327457,129.460203 C41.8730847,129.142102 42.0134237,128.814644 42.1537627,128.459119 L41.2649491,128.262644 C41.1058983,128.674305 40.9374915,129.07661 40.7690847,129.460203 L38.6078644,129.460203 L38.6078644,130.320949 L40.3293559,130.320949 C39.908339,131.088136 39.4498983,131.714983 38.9540339,132.220203 L39.1598644,133.034169 L42.1724746,133.034169 L42.1724746,134.222373 L38.4862373,134.222373 L38.4862373,135.083119 L42.1724746,135.083119 L42.1724746,137.019797 L43.08,137.019797 Z M56.6866441,131.172339 L56.6866441,129.179525 L53.112678,129.179525 C53.0004068,128.842712 52.8974915,128.533966 52.7852203,128.253288 L51.8122034,128.402983 C51.9431864,128.636881 52.0741695,128.898847 52.1864407,129.179525 L48.6124746,129.179525 L48.6124746,131.162983 L49.52,131.162983 L49.52,130.002847 L55.7791186,130.002847 L55.7791186,131.172339 L56.6866441,131.172339 Z M55.722983,132.809627 L56.2282034,132.051797 C55.4235932,131.424949 54.5441356,130.891661 53.5711186,130.461288 L53.103322,131.153627 C54.0014915,131.555932 54.8715932,132.107932 55.722983,132.809627 Z M49.3422373,132.781559 C50.4181695,132.351186 51.3256949,131.808542 52.0648136,131.153627 L51.5128136,130.517424 C50.8391864,131.116203 49.9877966,131.602712 48.9586441,131.976949 L49.3422373,132.781559 Z M56.6679322,136.664271 L56.6679322,135.812881 L53.0846102,135.812881 L53.0846102,133.866847 L55.8820339,133.866847 L55.8820339,133.024814 L49.4170847,133.024814 L49.4170847,133.866847 L52.1864407,133.866847 L52.1864407,135.812881 L48.6311864,135.812881 L48.6311864,136.664271 L56.6679322,136.664271 Z M66.8222373,131.172339 L66.8222373,129.179525 L63.2482712,129.179525 C63.136,128.842712 63.0330848,128.533966 62.9208136,128.253288 L61.9477966,128.402983 C62.0787797,128.636881 62.2097627,128.898847 62.3220339,129.179525 L58.7480678,129.179525 L58.7480678,131.162983 L59.6555932,131.162983 L59.6555932,130.002847 L65.9147119,130.002847 L65.9147119,131.172339 L66.8222373,131.172339 Z M65.8585763,132.809627 L66.3637966,132.051797 C65.5591864,131.424949 64.6797288,130.891661 63.7067119,130.461288 L63.2389153,131.153627 C64.1370848,131.555932 65.0071864,132.107932 65.8585763,132.809627 Z M59.4778305,132.781559 C60.5537627,132.351186 61.4612881,131.808542 62.2004068,131.153627 L61.6484068,130.517424 C60.9747797,131.116203 60.1233898,131.602712 59.0942373,131.976949 L59.4778305,132.781559 Z M66.8035254,136.664271 L66.8035254,135.812881 L63.2202034,135.812881 L63.2202034,133.866847 L66.0176271,133.866847 L66.0176271,133.024814 L59.552678,133.024814 L59.552678,133.866847 L62.3220339,133.866847 L62.3220339,135.812881 L58.7667797,135.812881 L58.7667797,136.664271 L66.8035254,136.664271 Z M69.3514576,136.926237 C70.0905763,136.421017 70.7174237,135.822237 71.2226441,135.129898 C71.6717288,135.485424 72.0553221,135.822237 72.3734237,136.140339 L72.9909153,135.410576 C72.6541017,135.101831 72.2237288,134.755661 71.6997966,134.372068 C72.3079322,133.268068 72.6447458,131.958237 72.7195932,130.442576 L72.7195932,129.937356 L70.8016271,129.937356 C70.8951865,129.450847 70.9981017,128.917559 71.091661,128.356203 L70.1934915,128.281356 C70.0999322,128.842712 70.0063729,129.394712 69.9034576,129.937356 L68.7152543,129.937356 L68.7152543,130.807458 L69.716339,130.807458 C69.4917966,131.743051 69.2485424,132.613153 68.9678644,133.417763 C69.5479322,133.829424 70.0718644,134.213017 70.539661,134.587254 C70.0718644,135.204746 69.4730848,135.738034 68.7620339,136.187119 L69.3514576,136.926237 Z M74.2071865,136.552 L74.2071865,135.981288 L75.8444746,135.981288 L75.8444746,136.552 L76.7052204,136.552 L76.7052204,129.095322 L73.3370848,129.095322 L73.3370848,136.552 L74.2071865,136.552 Z M75.8444746,135.120542 L74.2071865,135.120542 L74.2071865,129.956068 L75.8444746,129.956068 L75.8444746,135.120542 Z M71.0074576,133.866847 C70.6893559,133.642305 70.3338305,133.399051 69.9595932,133.146441 C70.1934915,132.519593 70.4180339,131.743051 70.6238644,130.807458 L71.8869153,130.807458 C71.7933559,131.958237 71.4939661,132.978034 71.0074576,133.866847 Z M85.8023051,136.664271 C86.3823729,136.664271 86.7753221,136.561356 86.9998644,136.364881 C87.2150509,136.149695 87.3553899,135.550915 87.4302373,134.559186 L86.6162712,134.287864 C86.5694916,135.055051 86.4759322,135.49478 86.3449492,135.625763 C86.1952543,135.74739 85.9707119,135.812881 85.6526102,135.812881 L81.6295594,135.812881 C81.2085424,135.812881 81.0027119,135.607051 81.0027119,135.19539 L81.0027119,131.88339 L82.7990509,131.499797 L82.7990509,134.699525 L83.6691526,134.699525 L83.6691526,131.312678 L85.6245424,130.891661 C85.6151865,132.107932 85.5964746,132.809627 85.5684068,132.996746 C85.5216271,133.324203 85.4,133.49261 85.2035255,133.49261 C84.9696271,133.49261 84.6983051,133.483254 84.3895594,133.473898 L84.6328136,134.29722 L85.0444746,134.29722 C85.8023051,134.29722 86.232678,134.035254 86.3262373,133.511322 C86.4197966,133.071593 86.4759322,131.827254 86.4759322,129.778305 L83.6691526,130.405153 L83.6691526,128.290712 L82.7990509,128.290712 L82.7990509,130.601627 L81.0027119,131.003932 L81.0027119,129.029831 L80.1326102,129.029831 L80.1326102,131.200407 L78.7198644,131.509153 L78.7198644,132.369898 L80.1326102,132.070508 L80.1326102,135.317017 C80.1326102,136.215186 80.5536271,136.664271 81.4143729,136.664271 L85.8023051,136.664271 Z M91.7932204,133.408407 C92.2235933,133.408407 92.6446102,133.080949 93.0562712,132.43539 L92.4481356,132.014373 C92.2048814,132.426034 91.980339,132.64122 91.7932204,132.64122 C91.6341695,132.64122 91.3534916,132.510237 90.9605424,132.266983 C90.5675933,132.005017 90.2120678,131.88339 89.9033221,131.88339 C89.4729492,131.88339 89.0519322,132.201492 88.6402712,132.847051 L89.2484068,133.268068 C89.4916611,132.856407 89.7068475,132.650576 89.9033221,132.650576 C90.0623729,132.650576 90.3430509,132.772203 90.745356,133.034169 C91.1383051,133.277424 91.4844746,133.408407 91.7932204,133.408407 Z"></path>
                <ellipse ry="23.5" rx="55.5" cy="90.5" cx="55.5" fill="url(#linearGradient-1)" id="椭圆形"></ellipse>
                <g transform="translate(19.001521, 0.000000)" id="编组-16">
                    <g transform="translate(7.113092, 30.579170)" id="编组-15">
                        <path fill="url(#linearGradient-2)" id="矩形" d="M4.73167415,12.930701 L63.6003691,12.930701 L63.6003691,12.930701 L52.5060873,42.5875531 L13.7716662,42.5875531 C12.4389294,42.5875531 11.2426793,41.7699622 10.7586088,40.5282444 L1.71861677,17.3392265 C1.06989847,15.6751608 1.89300013,13.800279 3.55706577,13.1515607 C3.9314787,13.0055998 4.32981643,12.930701 4.73167415,12.930701 Z"></path>
                        <polyline points="52.7402051 41.0628713 69.1943348 0 77.8853874 0" stroke-linecap="round" stroke-width="3.23391707" stroke="#E4E6E9" id="路径"></polyline>
                        <path stroke-linecap="round" stroke-width="3.23391707" stroke="#E4E6E9" id="路径" d="M14.0136406,39.8696615 L48.5087561,39.8696615 C52.0808423,39.8696615 54.9765902,42.7642975 54.9765902,46.335012 L54.9765902,48.4901289 C54.9765902,52.0608434 52.0808423,54.9554794 48.5087561,54.9554794 L14.0136406,54.9554794"></path>
                        <ellipse ry="3.23267526" rx="3.23391707" cy="58.1881546" cx="22.6374195" fill="url(#linearGradient-3)" id="椭圆形"></ellipse>
                        <ellipse ry="3.23267526" rx="3.23391707" cy="58.1881546" cx="43.1188943" fill="url(#linearGradient-3)" id="椭圆形备份"></ellipse>
                        <rect rx="2.15594472" height="19.3960515" width="4.31188943" y="18.3184931" x="32.3391707" fill="#FFFFFF" id="矩形"></rect>
                        <path transform="translate(21.559447, 29.094077) rotate(-15.000000) translate(-21.559447, -29.094077)" fill="#FFFFFF" id="矩形备份" d="M21.5585158,19.395802 C22.7492475,19.3959163 23.7144977,20.3611665 23.7146121,21.5518982 L23.7160607,36.6366704 C23.7161751,37.8271065 22.7512286,38.7922383 21.5607924,38.7923527 C21.5606545,38.7923527 21.5605165,38.7923527 21.5603785,38.7923527 C20.3696468,38.7922383 19.4043966,37.8269882 19.4042822,36.6362564 L19.4028336,21.5514843 C19.4027192,20.3610481 20.3676657,19.3959163 21.5581019,19.395802 C21.5582398,19.395802 21.5583778,19.395802 21.5585158,19.395802 Z"></path>
                        <path transform="translate(46.352811, 29.094077) scale(-1, 1) rotate(-15.000000) translate(-46.352811, -29.094077)" fill="#FFFFFF" id="矩形备份-2" d="M46.35188,19.395802 C47.5426117,19.3959163 48.507862,20.3611665 48.5079763,21.5518982 L48.509425,36.6366704 C48.5095393,37.8271065 47.5445928,38.7922383 46.3541567,38.7923527 C46.3540187,38.7923527 46.3538807,38.7923527 46.3537427,38.7923527 C45.163011,38.7922383 44.1977608,37.8269882 44.1976464,36.6362564 L44.1961978,21.5514843 C44.1960835,20.3610481 45.16103,19.3959163 46.3514661,19.395802 C46.3516041,19.395802 46.351742,19.395802 46.35188,19.395802 Z"></path>
                    </g>
                    <path transform="translate(55.101534, 23.938600) rotate(95.000000) translate(-55.101534, -23.938600)" fill="url(#linearGradient-4)" id="路径-2" d="M54.0541246,21.9407994 C56.7774756,21.3260326 58.4894257,22.5033586 59.189975,25.4727773 C57.0597967,26.9317048 54.3341697,25.8232914 51.0130939,22.1475373 L54.0541246,21.9407994 Z"></path>
                    <path transform="translate(5.200865, 10.973239) rotate(35.000000) translate(-5.200865, -10.973239)" fill="url(#linearGradient-5)" id="路径-2备份" d="M3.96850608,9.65004175 C7.19701888,9.59622944 9.16138218,10.7189491 9.86159598,13.0182008 C7.73062233,14.148374 4.62346857,12.6629803 0.540134676,8.5620198 L3.96850608,9.65004175 Z"></path>
                    <path transform="translate(10.661565, 23.236782) rotate(11.000000) translate(-10.661565, -23.236782)" fill="url(#linearGradient-6)" id="路径-2备份-2" d="M9.83319122,22.2384138 C11.987373,21.9309429 13.3414352,22.5192639 13.8953775,24.0033767 C12.2103368,24.7327293 10.0544621,24.1789266 7.42775339,22.3419685 L9.83319122,22.2384138 Z"></path>
                    <path transform="translate(32.530473, 19.931294) rotate(16.000000) translate(-32.530473, -19.931294)" stroke-dasharray="1.077972357516457" stroke-width="1.07797236" stroke="#B9BBC0" id="路径-3" d="M3.42732948,7.54197212 C19.6873792,23.0067567 31.4070514,27.7841352 38.5863461,21.8741074 C49.3552882,13.0090658 23.0433114,7.47852725 27.0634183,24.1241823 C30.5237931,33.2864402 51.8283639,26.0444023 56.5513739,28.9743436 C58.9508925,30.065878 60.6449732,31.1813023 61.633616,32.3206165"></path>
                </g>
            </g>
        </g>
    </g>
</svg>