<svg width="1024px" height="1024px" viewBox="0 0 1024 1024" version="1.1" xmlns="http://www.w3.org/2000/svg" xmlns:xlink="http://www.w3.org/1999/xlink">
    <title>购物车空空如也</title>
    <defs>
        <linearGradient x1="-13.5823507%" y1="50%" x2="50%" y2="47.2031971%" id="linearGradient-1">
            <stop stop-color="#98D6FA" offset="0%"></stop>
            <stop stop-color="#47B0F1" offset="100%"></stop>
        </linearGradient>
        <linearGradient x1="-9.33772794e-14%" y1="-3.10559006%" x2="100%" y2="-3.10559006%" id="linearGradient-2">
            <stop stop-color="#FFF5DE" offset="0%"></stop>
            <stop stop-color="#FBD2AC" offset="100%"></stop>
        </linearGradient>
        <linearGradient x1="-13.5823507%" y1="50%" x2="50%" y2="47.6284444%" id="linearGradient-3">
            <stop stop-color="#98D6FA" offset="0%"></stop>
            <stop stop-color="#47B0F1" offset="100%"></stop>
        </linearGradient>
        <linearGradient x1="-13.5823507%" y1="50%" x2="50%" y2="47.629463%" id="linearGradient-4">
            <stop stop-color="#98D6FA" offset="0%"></stop>
            <stop stop-color="#47B0F1" offset="100%"></stop>
        </linearGradient>
        <linearGradient x1="-13.5823507%" y1="50%" x2="50%" y2="47.6298828%" id="linearGradient-5">
            <stop stop-color="#98D6FA" offset="0%"></stop>
            <stop stop-color="#47B0F1" offset="100%"></stop>
        </linearGradient>
        <linearGradient x1="-13.5823507%" y1="50%" x2="50%" y2="43.4230204%" id="linearGradient-6">
            <stop stop-color="#98D6FA" offset="0%"></stop>
            <stop stop-color="#47B0F1" offset="100%"></stop>
        </linearGradient>
        <linearGradient x1="43.1398925%" y1="-6.4516129%" x2="60.3365636%" y2="0%" id="linearGradient-7">
            <stop stop-color="#AFDEF9" offset="3.15726754%"></stop>
            <stop stop-color="#7CC9F9" offset="100%"></stop>
        </linearGradient>
        <linearGradient x1="5.92025809%" y1="60.8571499%" x2="59.966368%" y2="37.0542203%" id="linearGradient-8">
            <stop stop-color="#98D6FA" offset="0%"></stop>
            <stop stop-color="#47B0F1" offset="100%"></stop>
        </linearGradient>
        <linearGradient x1="44.4926371%" y1="-6.4516129%" x2="58.2982966%" y2="0%" id="linearGradient-9">
            <stop stop-color="#AFDEF9" offset="3.15726754%"></stop>
            <stop stop-color="#7CC9F9" offset="100%"></stop>
        </linearGradient>
        <linearGradient x1="28.4038852%" y1="87.0084871%" x2="50%" y2="30.4810963%" id="linearGradient-10">
            <stop stop-color="#98D6FA" offset="0%"></stop>
            <stop stop-color="#47B0F1" offset="100%"></stop>
        </linearGradient>
        <linearGradient x1="80.1766865%" y1="78.1244605%" x2="40.1612594%" y2="1.20356745%" id="linearGradient-11">
            <stop stop-color="#98D6FA" offset="0%"></stop>
            <stop stop-color="#47B0F1" offset="100%"></stop>
        </linearGradient>
        <linearGradient x1="16.9636606%" y1="77.6033014%" x2="73.1106367%" y2="27.3104148%" id="linearGradient-12">
            <stop stop-color="#98D6FA" offset="0%"></stop>
            <stop stop-color="#47B0F1" offset="100%"></stop>
        </linearGradient>
        <linearGradient x1="0%" y1="66.879116%" x2="84.977599%" y2="36.1255675%" id="linearGradient-13">
            <stop stop-color="#98D6FA" offset="0%"></stop>
            <stop stop-color="#47B0F1" offset="100%"></stop>
        </linearGradient>
        <linearGradient x1="0%" y1="64.3617284%" x2="84.977599%" y2="38.1948302%" id="linearGradient-14">
            <stop stop-color="#98D6FA" offset="0%"></stop>
            <stop stop-color="#47B0F1" offset="100%"></stop>
        </linearGradient>
        <linearGradient x1="0%" y1="63.9354617%" x2="84.977599%" y2="38.5452163%" id="linearGradient-15">
            <stop stop-color="#98D6FA" offset="0%"></stop>
            <stop stop-color="#47B0F1" offset="100%"></stop>
        </linearGradient>
        <linearGradient x1="0%" y1="-11.7647059%" x2="100%" y2="-11.7647059%" id="linearGradient-16">
            <stop stop-color="#F5DDA7" offset="0%"></stop>
            <stop stop-color="#FA9A41" offset="100%"></stop>
        </linearGradient>
        <linearGradient x1="100%" y1="0%" x2="0%" y2="70.6217521%" id="linearGradient-17">
            <stop stop-color="#98D6FA" offset="0%"></stop>
            <stop stop-color="#47B0F1" offset="100%"></stop>
        </linearGradient>
        <linearGradient x1="100%" y1="43.1416325%" x2="0%" y2="52.8286311%" id="linearGradient-18">
            <stop stop-color="#98D6FA" offset="0%"></stop>
            <stop stop-color="#47B0F1" offset="100%"></stop>
        </linearGradient>
        <linearGradient x1="-54.0805314%" y1="60.9485448%" x2="50%" y2="44.2255518%" id="linearGradient-19">
            <stop stop-color="#98D6FA" offset="0%"></stop>
            <stop stop-color="#47B0F1" offset="100%"></stop>
        </linearGradient>
        <linearGradient x1="-54.0805314%" y1="59.7405198%" x2="50%" y2="44.8626847%" id="linearGradient-20">
            <stop stop-color="#98D6FA" offset="0%"></stop>
            <stop stop-color="#47B0F1" offset="100%"></stop>
        </linearGradient>
        <linearGradient x1="-54.0805314%" y1="65.0957193%" x2="50%" y2="42.0382616%" id="linearGradient-21">
            <stop stop-color="#98D6FA" offset="0%"></stop>
            <stop stop-color="#47B0F1" offset="100%"></stop>
        </linearGradient>
        <linearGradient x1="86.2750219%" y1="-2.80504909%" x2="-2.70574742e-12%" y2="-2.80504909%" id="linearGradient-22">
            <stop stop-color="#1D181C" offset="0%"></stop>
            <stop stop-color="#2C2422" offset="30%"></stop>
            <stop stop-color="#42352C" offset="50%"></stop>
            <stop stop-color="#57352C" offset="70%"></stop>
            <stop stop-color="#923629" offset="100%"></stop>
        </linearGradient>
        <linearGradient x1="-2.70339306e-12%" y1="-2.80504909%" x2="86.2750219%" y2="-2.80504909%" id="linearGradient-23">
            <stop stop-color="#923629" offset="0%"></stop>
            <stop stop-color="#57352C" offset="30%"></stop>
            <stop stop-color="#42352C" offset="50%"></stop>
            <stop stop-color="#2C2422" offset="70%"></stop>
            <stop stop-color="#1D181C" offset="100%"></stop>
        </linearGradient>
        <linearGradient x1="100%" y1="-2.96987539%" x2="0.581465918%" y2="-2.96987539%" id="linearGradient-24">
            <stop stop-color="#FFB859" offset="0%"></stop>
            <stop stop-color="#F97B61" offset="100%"></stop>
        </linearGradient>
        <linearGradient x1="-37.1134427%" y1="57.1500357%" x2="100%" y2="57.1500357%" id="linearGradient-25">
            <stop stop-color="#FFB859" offset="0%"></stop>
            <stop stop-color="#F97B61" offset="100%"></stop>
        </linearGradient>
        <linearGradient x1="89.4431057%" y1="30.0140424%" x2="0%" y2="110.706017%" id="linearGradient-26">
            <stop stop-color="#98D6FA" offset="0%"></stop>
            <stop stop-color="#47B0F1" offset="100%"></stop>
        </linearGradient>
        <linearGradient x1="-54.0805314%" y1="61.9485618%" x2="50%" y2="43.6981259%" id="linearGradient-27">
            <stop stop-color="#98D6FA" offset="0%"></stop>
            <stop stop-color="#47B0F1" offset="100%"></stop>
        </linearGradient>
        <linearGradient x1="89.4431057%" y1="44.6320969%" x2="0%" y2="66.3046487%" id="linearGradient-28">
            <stop stop-color="#98D6FA" offset="0%"></stop>
            <stop stop-color="#47B0F1" offset="100%"></stop>
        </linearGradient>
    </defs>
    <g id="购物车空空如也" stroke="none" stroke-width="1" fill="none" fill-rule="evenodd">
        <rect id="矩形" fill="#FFFFFF" opacity="0" x="0" y="0" width="1024" height="1024"></rect>
        <g id="背景" transform="translate(-10.925399, 125.000000)" fill-rule="nonzero">
            <path d="M87.7222308,456.766916 C80.0492274,423.67151 30.1022806,208.146339 171.323307,178.512529 C312.544333,148.878718 395.972947,183.393328 458.023811,123.051676 C520.074675,62.7100235 535.549093,72.613831 586.515601,76.6047879 C637.482109,80.5957448 696.551563,37.0388532 716.400276,23.9553401 C736.248989,10.871827 915.459428,-73.3066327 961.276528,178.512529 C968.517655,287.383698 974.535248,405.496594 923.838362,450.237259 C873.141476,494.977924 924.764528,535.151398 961.276528,539.615502 C997.788527,544.079607 944.206939,620.525811 859.876058,653.901824 C803.805493,679.056083 441.11611,751.180384 223.920174,677.040997 C119.040265,632.124956 95.3952341,489.862323 87.7222308,456.766916 Z" id="路径-58" fill="#47B0F1" opacity="0.05"></path>
            <path d="M168.925399,204 L168.925997,204.150149 C172.349059,204.845285 174.925399,207.871774 174.925399,211.5 L174.925399,212.5 C174.925399,216.642136 171.567535,220 167.425399,220 L88.4253989,220 C84.2832633,220 80.9253989,216.642136 80.9253989,212.5 L80.9253989,211.5 C80.9253989,207.357864 84.2832633,204 88.4253989,204 L119.925399,204 C123.710851,204 126.794498,200.995217 126.92134,197.24065 L126.925399,197 C126.925399,193.214548 123.920616,190.130901 120.166049,190.004059 L119.925399,190 L116.925399,190 L116.925805,189.850055 C113.502242,189.155307 110.925399,186.12858 110.925399,182.5 L110.925399,181.5 C110.925399,177.357864 114.283263,174 118.425399,174 L197.425399,174 C201.567535,174 204.925399,177.357864 204.925399,181.5 L204.925399,182.5 C204.925399,186.642136 201.567535,190 197.425399,190 L165.925399,190 C162.139947,190 159.0563,193.004783 158.929458,196.75935 L158.925399,197 C158.925399,200.785452 161.930182,203.869099 165.684749,203.995941 L165.925399,204 L168.925399,204 Z" id="形状结合" fill="url(#linearGradient-1)" opacity="0.100000001"></path>
            <path d="M868.925399,34 L868.925997,34.1501485 C872.349059,34.845285 874.925399,37.8717743 874.925399,41.5 L874.925399,42.5 C874.925399,46.6421356 871.567535,50 867.425399,50 L788.425399,50 C784.283263,50 780.925399,46.6421356 780.925399,42.5 L780.925399,41.5 C780.925399,37.3578644 784.283263,34 788.425399,34 L819.925399,34 C823.710851,34 826.794498,30.9952166 826.92134,27.2406498 L826.925399,27 C826.925399,23.2145483 823.920616,20.1309013 820.166049,20.004059 L819.925399,20 L816.925399,20 L816.925805,19.8500552 C813.502242,19.1553066 810.925399,16.1285803 810.925399,12.5 L810.925399,11.5 C810.925399,7.35786438 814.283263,4 818.425399,4 L897.425399,4 C901.567535,4 904.925399,7.35786438 904.925399,11.5 L904.925399,12.5 C904.925399,16.6421356 901.567535,20 897.425399,20 L865.925399,20 C862.139947,20 859.0563,23.0047834 858.929458,26.7593502 L858.925399,27 C858.925399,30.7854517 861.930182,33.8690987 865.684749,33.995941 L865.925399,34 L868.925399,34 Z" id="形状结合" fill="url(#linearGradient-1)" opacity="0.100000001"></path>
            <path d="M525.44197,587 C656.546603,587 774.70322,597.788312 857.228344,615.013362 C937.989145,615.660019 1002.9254,640.030791 1002.9254,670 C1002.9254,694.229977 960.47882,714.80045 901.536221,722.132354 C888.569443,725.884939 874.130297,729.433119 858.378638,732.745641 C858.740426,734.812004 858.925399,736.897944 858.925399,739 C858.925399,790.914766 746.101156,833 606.925399,833 C482.272656,833 378.758797,799.239705 358.512758,754.894193 C191.123049,742.128701 72.9253989,710.721174 72.9253989,674 C72.9253989,625.951227 275.292692,587 525.44197,587 Z" id="形状结合" fill="url(#linearGradient-2)"></path>
            <g id="大雁" transform="translate(660.099546, 36.907158)">
                <path d="M37.4312095,64.7423818 L37.4312095,64.6452119 C32.1058219,49.6073265 14.7356607,42.5306746 0,44.7153228 C10.9264423,37.9201286 28.9638433,36.1107574 37.4343421,46.5280447 L37.4343421,46.6185133 C45.8923106,36.2916945 64.0268216,38.0139479 74.8686842,44.8057914 C60.1455538,42.7216638 42.77226,49.7882636 37.4343421,64.7356804 L37.4312095,64.7423818 Z" id="路径" fill="url(#linearGradient-3)"></path>
                <path d="M120.860322,52.2014603 L120.860322,52.1377972 C117.160744,41.7138085 105.128501,36.8184542 94.9131541,38.3229128 C102.484602,33.6151969 114.989865,32.3586891 120.860322,39.5794206 L120.860322,39.6430837 C126.730779,32.4860153 139.292428,33.67886 146.80749,38.3865759 C136.592143,36.9424296 124.566165,41.8411347 120.860322,52.2014603 L120.860322,52.2014603 Z" id="路径" fill="url(#linearGradient-4)"></path>
                <path d="M86.0679846,17.7234613 L86.0679846,17.6597983 C82.3684066,7.23580958 70.3361632,2.34045519 60.1208168,3.84491386 C67.6922649,-0.862802022 80.197528,-2.11930982 86.0679846,5.10142166 L86.0679846,5.16508473 C91.9384413,-1.9919837 104.500091,-0.79913896 112.015152,3.90857693 C101.799806,2.46443063 89.7738279,7.3631357 86.0679846,17.7234613 L86.0679846,17.7234613 Z" id="路径" fill="url(#linearGradient-4)"></path>
                <path d="M191.548904,58.1616316 L191.548904,58.1180727 C188.986453,50.8939905 180.641257,47.4963934 173.561624,48.5418079 C178.81183,45.2782383 187.479681,44.4070596 191.548904,49.4129867 L191.548904,49.4565456 C195.621259,44.4941775 204.326702,45.3217973 209.536184,48.5853668 C202.456551,47.5801606 194.111355,50.9811084 191.548904,58.1616316 Z" id="路径" fill="url(#linearGradient-5)"></path>
            </g>
            <g id="绿植" transform="translate(0.000000, 469.157511)">
                <path d="M53.4579208,97.7847305 C18.7211621,88.9919949 5.51519106,98.6448032 13.8400076,126.743156 C17.2768648,135.307054 21.6179554,140.267707 26.8632792,141.625117 C42.2267921,154.803478 51.0916726,165.971312 53.4579208,175.128619 C57.0072929,188.86458 70.6197469,202.733737 96.1649191,188.931178 C113.195034,179.729472 127.390936,187.611424 138.752626,212.577035 C163.918858,236.006441 201.646652,240.485951 251.936008,226.015566 C302.225365,211.545181 294.797427,188.486591 229.652195,156.839796 C212.849853,153.406508 200.181906,151.689865 191.648355,151.689865 C183.114804,151.689865 177.463354,143.374295 174.694005,126.743156 C172.893304,116.34828 164.032796,110.087373 148.11248,107.960436 C132.192164,105.833499 124.547998,99.3505574 125.179981,88.5116107 C112.58823,75.545727 100.290346,75.545727 88.2863266,88.5116107 C76.2823076,101.477494 64.672839,104.568534 53.4579208,97.7847305 Z" id="路径-61" fill="url(#linearGradient-6)" transform="translate(148.112480, 156.545047) rotate(10.000000) translate(-148.112480, -156.545047)"></path>
                <path d="M128.357876,61.8772723 L139.708518,118.792492 C147.102266,107.926046 152.423641,98.4478044 155.672643,90.3577665 C160.484426,78.3763885 149.169419,111.841061 140.173455,121.127486 L149.63639,168.578733 C149.645965,168.513344 149.656389,168.449987 149.667663,168.388661 C162.67777,156.94852 170.895007,148.098659 174.319374,141.839075 C173.679437,146.283538 157.476925,166.540868 150.225374,171.539333 L158.930067,215.183483 C158.957143,214.862431 158.980375,214.651495 158.980375,214.651495 C158.980375,214.651495 170.424065,205.903486 174.319374,199.624769 C174.068987,202.241567 164.305398,213.580138 159.442775,217.757845 L166.625116,253.775222 L161.152021,253.775222 L154.642076,215.683175 C145.056775,213.216902 136.254724,205.490142 132.63269,201.122197 C140.695168,207.831691 147.787135,211.53314 153.908592,212.226545 C154.031116,213.306678 154.243439,214.271485 154.545563,215.120968 L136.214888,107.844899 C136.198618,108.140956 136.168439,108.434419 136.12435,108.725288 C125.50581,100.730628 117.714835,91.8155981 112.751425,81.9801986 C114.522037,81.3968589 119.762198,95.8303018 135.848668,105.71297 L128.357876,61.8772723 Z M103.238822,145.449865 C110.476935,153.117211 124.487041,158.514569 145.269141,161.641939 C145.199057,162.54413 145.199057,163.589954 145.269141,164.779412 C125.05606,162.407149 109.416656,153.794333 103.238822,145.449865 Z" id="形状结合" fill="url(#linearGradient-7)" transform="translate(138.779098, 157.826247) rotate(-45.000000) translate(-138.779098, -157.826247)"></path>
                <path d="M100.496525,13.1192019 C68.3285506,-8.77204952 53.4010573,-3.26680461 55.7140452,29.6349366 C61.9026183,53.2030454 65.9619965,68.9582926 63.9323074,83.4041721 C61.9026183,97.8500517 68.2472324,125.149784 100.496525,136.352578 C121.996053,143.821106 128.034527,154.418116 118.611946,168.143606 C113.881324,189.217665 139.9571,204.343139 196.839274,213.520027 C282.162536,227.285361 261.833383,195.652719 239.897382,161.364899 C224.027229,145.480093 221.903337,135.784371 221.903337,123.644346 C221.903337,111.504321 233.51901,91.6604587 200.14408,83.4041721 C185.486559,80.0715009 177.801522,65.4135325 177.088969,39.4302669 C174.782644,26.3698265 160.791703,23.1047164 135.116145,29.6349366 C123.694555,31.8301289 112.154681,26.324884 100.496525,13.1192019 Z" id="路径-65" fill="url(#linearGradient-8)"></path>
                <path d="M132.265793,14.8667685 L144.366738,70.8957685 L144.50287,70.7771673 C152.074817,64.0828933 156.911496,55.9518327 159.012906,46.3839853 L159.077738,46.0747685 L159.072047,46.1190409 C157.984672,53.6751711 158.206027,63.4270148 144.96281,73.6504051 L155.214738,121.128769 L155.507784,120.971226 C164.596231,115.963306 172.1694,107.249088 178.227291,94.8285717 C177.584791,99.2908322 168.96993,117.022913 155.89698,124.283812 L164.982203,166.350593 C167.636591,164.741196 174.635034,159.979484 178.227291,152.614266 C176.551091,158.07617 173.285119,164.909693 165.6606,169.489893 L179.068008,231.572551 L173.470997,228.842707 L161.516396,166.766296 C141.554906,165.760351 133.721891,158.288622 130.145364,153.975556 C138.030824,160.537738 148.268673,163.661789 160.858911,163.34771 L151.768386,116.140769 C151.776756,116.474589 151.791551,116.821578 151.812772,117.181736 C131.599691,114.809472 113.324572,106.78383 107.146738,98.4393607 C114.384851,106.106707 129.273529,111.308341 151.812772,114.044263 L151.353738,113.987769 L141.225572,61.3832515 C141.208927,61.565688 141.186929,61.7471264 141.159578,61.9275666 C128.078098,56.5155778 119.911352,47.5296205 116.659341,34.9696948 C118.427873,34.3870402 120.784183,50.1179685 140.745474,58.903355 L132.265793,14.8667685 Z" id="形状结合" fill="url(#linearGradient-9)" transform="translate(143.107373, 123.219660) rotate(-26.000000) translate(-143.107373, -123.219660)"></path>
                <path d="M210.126368,14.594686 C222.545375,-2.66511618 233.662578,-0.913530277 243.477977,19.8494437 C248.236888,37.7903021 240.72244,49.1966794 265.298493,57.3519642 C281.682529,62.7888208 284.161791,74.1716616 272.736279,91.5004868 C267.964121,102.404197 271.489923,109.373709 283.313684,112.409024 C295.137446,115.444338 293.715218,127.517382 279.046999,148.628157 C273.962442,160.201369 273.962442,167.934544 279.046999,171.827682 C286.673836,177.66739 301.328876,195.179148 283.313684,229.219126 C265.298493,263.259105 222.853604,236.822667 216.489986,220.818047 C210.126368,204.813427 222.853604,182.767143 216.489986,171.827682 C210.126368,160.888221 173.02471,157.12147 182.93685,124.310978 C191.186456,110.887444 202.671075,107.007173 191.140868,84.150088 C179.610661,61.2930028 176.683549,70.4768325 191.140868,47.9608957 C197.453469,41.4908822 203.781969,30.3688123 210.126368,14.594686 Z" id="路径-96" fill="url(#linearGradient-10)"></path>
                <path d="M227.031254,44.3491751 L238.381895,101.264395 C245.775644,90.397949 251.097019,80.9197072 254.34602,72.8296692 C259.157803,60.8482913 247.842797,94.3129634 238.846832,103.599388 L248.309767,151.050636 C248.319342,150.985247 248.329766,150.92189 248.34104,150.860564 C261.351147,139.420423 269.568384,130.570561 272.992752,124.310978 C272.352814,128.755441 256.150302,149.012771 248.898751,154.011236 L257.603444,197.655386 C257.63052,197.334334 257.653752,197.123397 257.653752,197.123397 C257.653752,197.123397 269.097442,188.375389 272.992752,182.096672 C272.742365,184.713469 262.978776,196.05204 258.116152,200.229748 L265.298493,236.247125 L259.825398,236.247125 L253.315454,198.155078 C243.730152,195.688804 234.928101,187.962045 231.306067,183.594099 C239.368545,190.303594 246.460512,194.005043 252.581969,194.698448 C252.704493,195.778581 252.916816,196.743388 253.21894,197.592871 L234.888265,90.3168021 C234.871996,90.6128587 234.841816,90.9063217 234.797727,91.1971908 C224.179187,83.2025307 216.388212,74.2875009 211.424802,64.4521014 C213.195414,63.8687616 218.435575,78.3022046 234.522045,88.1848725 L227.031254,44.3491751 Z M201.912199,127.921767 C209.150312,135.589113 223.160419,140.986472 243.942519,144.113842 C243.872435,145.016033 243.872435,146.061857 243.942519,147.251315 C223.729438,144.879052 208.090033,136.266236 201.912199,127.921767 Z" id="形状结合" fill="url(#linearGradient-7)"></path>
            </g>
            <g id="石头" transform="translate(906.925399, 613.000000)">
                <path d="M42.3959886,49.5164474 C45.3020221,27.3131416 37.8366926,15.351725 20,13.6321975 C44.1424324,11.3251757 60.1235326,26.0173187 60.3823024,49.5164474 C55.3770448,49.6908524 49.3816069,49.6908524 42.3959886,49.5164474 Z" id="路径-38" fill="url(#linearGradient-11)"></path>
                <path d="M54.120901,49.6472512 C58.8339305,27.2411086 53.0371808,10.6920249 36.7306519,0 C57.5522392,6.56657635 72.5106644,16.4351231 77.3732031,49.6472512 C71.0188781,50.1175829 63.2681108,50.1175829 54.120901,49.6472512 Z" id="路径-39" fill="url(#linearGradient-12)"></path>
                <path d="M81.0677818,50 C78.9833933,28.7044584 86.627466,16.502709 104,13.3947519 C87.886355,12.9867807 69.9112687,11.9056548 57.0519275,50 C67.9497157,49.6502805 75.9550005,49.6502805 81.0677818,50 Z" id="路径-40" fill="url(#linearGradient-13)"></path>
                <path d="M31.4123189,63.9990036 C48.2570038,63.9990036 61,64.4087768 61,48.6086537 C61,32.8085305 47.3446849,20 30.5,20 C13.6553151,20 0,32.8085305 0,48.6086537 C0,64.4087768 14.567634,63.9990036 31.4123189,63.9990036 Z" id="椭圆形" fill="url(#linearGradient-14)"></path>
                <path d="M64.5683298,63.9993886 C75.0617401,63.9993886 83,64.2508403 83,54.5553102 C83,44.8597801 74.4934102,37 64,37 C53.5065898,37 45,44.8597801 45,54.5553102 C45,64.2508403 54.0749196,63.9993886 64.5683298,63.9993886 Z" id="椭圆形备份-6" fill="url(#linearGradient-15)"></path>
            </g>
        </g>
        <path d="M818.52111,775.313466 C773.074751,785.34381 793.25182,788.254514 810.288559,791.291246 C841.57049,796.867129 830.503424,804.252058 817.549081,811.226342 C798.376288,821.54848 641.687065,853.661367 459.26578,846.992618 C289.159857,840.786597 304.788318,808.626891 343.006096,791.995845 C373.794498,778.631126 515.019561,743.654213 686.865699,737.978971 C790.274572,734.549328 836.724901,739.857108 847.166185,745.600399 C864.434463,755.113575 869.12118,764.139907 818.52111,775.313466 Z" id="路径" fill="url(#linearGradient-16)" fill-rule="nonzero" opacity="0.4" transform="translate(588.619289, 792.395663) scale(-1, 1) rotate(4.000000) translate(-588.619289, -792.395663)"></path>
        <g id="购物车" transform="translate(507.045399, 669.088827) scale(-1, 1) translate(-507.045399, -669.088827) translate(362.440725, 540.189240)" fill-rule="nonzero">
            <path d="M22.074839,36.9887224 L18.7712515,39.0176598 L14.827952,38.5402628 L7.733832,33.9190595 C7.733832,33.9190595 5.9292712,29.9089244 7.06070218,25.8844674 C8.19213316,21.8600103 10.626858,25.7698921 10.7843991,24.4522762 C10.9276182,23.2544437 11.2641634,19.3500461 11.3241698,18.6500551 L11.3334057,18.5421009 C11.3334057,18.5421009 11.3304519,18.5406172 11.3246424,18.5377031 L11.2563004,18.5034786 C10.4142796,18.0823263 2.92302099,14.3511855 1.03595157,13.9638633 L1.03595157,13.9638633 L0,8.26374271 L3.871,7.625 L6.43053809,0 L21.0197915,10.1924267 C21.0197915,10.1924267 21.3266816,10.6778463 21.8240611,11.4731806 L22.0192802,11.7856155 C22.8001059,13.0363422 23.9444938,14.8821457 25.1066809,16.8016963 L25.4100366,17.3037787 L25.4100366,17.3037787 L25.7128357,17.8071502 C25.76318,17.8910386 25.8134444,17.9748951 25.8636002,18.0586767 L26.1630069,18.5601255 C26.3614407,18.8933691 26.5572299,19.2240442 26.748556,19.5494087 C29.2357946,23.7791464 29.8898285,26.6196588 29.8898285,26.6196588 C29.8898285,26.6196588 28.6008565,34.5778674 27.1686654,36.0530242 C25.9626097,37.2952616 23.0638443,36.2252575 22.1785126,35.8563915 L22.074839,36.9887224 Z" id="形状结合" fill="#EFBA9E"></path>
            <path d="M246.613761,226.481928 C255.259597,226.487195 262.267117,233.494715 262.272384,242.140551 C262.272384,250.78857 255.26178,257.799174 246.613761,257.799174 C237.965743,257.799174 230.955139,250.78857 230.955139,242.140551 C230.955139,233.492533 237.965743,226.481928 246.613761,226.481928 Z M246.613761,232.740604 C242.809472,232.740604 239.379868,235.032508 237.924476,238.547398 C236.469084,242.062287 237.274587,246.1078 239.965309,248.797156 C242.65603,251.486511 246.701951,252.289961 250.216102,250.832784 C253.730252,249.375608 256.020414,245.94484 256.018484,242.140551 C256.015847,236.948331 251.805982,232.740604 246.613761,232.740604 Z" id="形状结合" fill="url(#linearGradient-17)"></path>
            <path d="M126.92555,226.481928 C135.569207,226.49245 142.573651,233.496895 142.584173,242.140551 C142.584173,250.78857 135.573569,257.799174 126.92555,257.799174 C118.277532,257.799174 111.266927,250.78857 111.266927,242.140551 C111.266927,233.492533 118.277532,226.481928 126.92555,226.481928 Z M126.92555,232.740599 C123.125125,232.736742 119.696678,235.022836 118.239196,238.532678 C116.781713,242.04252 117.582291,246.084741 120.26755,248.774097 C122.952808,251.463452 126.993804,252.270193 130.505864,250.818064 C134.017924,249.365935 136.309243,245.940978 136.311176,242.140551 C136.311176,236.954691 132.111404,232.748505 126.92555,232.740599 Z" id="形状结合" fill="url(#linearGradient-17)"></path>
            <path d="M266.144074,224.262032 L266.110656,224.262032 L115.38209,222.801197 C111.753872,222.801197 106.483409,222.3238 103.232335,218.289795 C99.2078783,213.30577 100.49685,205.318918 102.320507,196.878538 C105.184889,183.482777 106.94171,174.880083 106.94171,174.880083 C107.354545,172.807984 109.182843,171.322492 111.295571,171.342571 C139.361743,171.595591 194.276724,161.924995 201.046214,161.342571 C202.637159,161.171779 204.195844,161.87591 205.119345,163.182593 C206.042846,164.489276 206.186339,166.193597 205.494317,167.636296 C204.802296,169.078996 203.383285,170.033829 201.78618,170.13145 C193.842293,170.790258 130.926137,180.317635 114.823535,180.174416 C114.054926,183.917209 112.703893,190.395486 110.913654,198.711743 C110.202332,201.967591 108.350032,210.613251 110.063887,212.737668 C110.689277,213.520599 112.608413,213.964578 115.410734,213.964578 L266.134526,215.439735 C268.565463,215.439735 270.536127,217.410399 270.536127,219.841336 C270.536127,222.272273 268.565463,224.242936 266.134526,224.242936 L266.144074,224.262032 Z" id="路径" fill="url(#linearGradient-18)"></path>
            <path d="M275.749303,147.413593 L110.383743,167.413593 C108.590535,167.422602 106.972346,166.339399 106.297224,164.678108 L59.9658418,50.7425311 C59.9658418,50.7425311 57.7507196,46.4459577 47.2336629,42.9752813 C33.9477033,38.5402628 18.0694779,31.3411155 17.3915741,31.0403554 C15.5878517,30.2207009 14.5583651,28.29286 14.8804656,26.3379945 C14.0293928,26.7968747 13.3495004,27.5186323 12.9422337,28.3955758 C11.9314076,30.6156424 12.9098921,33.2349041 15.1287121,34.2484634 C15.8066159,34.5444496 31.6561975,41.729275 44.9708009,46.1833894 C55.4735357,49.6731617 57.7029799,53.9363173 57.7029799,53.9363173 L104.010492,167.871894 C104.687815,169.535985 106.300399,170.628624 108.097011,170.640797 L273.495989,150.640797 C275.658691,150.634301 277.499906,149.065635 277.84985,146.931422 L277.84985,146.835943 C277.209529,147.202419 276.486974,147.401121 275.749303,147.413593 Z" id="路径" fill="url(#linearGradient-19)"></path>
            <path d="M19.2391006,25.7885843 C19.4732328,25.7833141 19.7049337,25.8375419 19.9122304,25.946529 C19.9298941,25.9532125 20.1069129,26.0323172 20.4242101,26.1736172 L20.6312692,26.2657788 C22.8671418,27.2603931 30.015682,30.4204117 37.956304,33.537052 L38.7528539,33.8484897 C39.4185913,34.1077642 40.0888755,34.3662262 40.7613218,34.6225974 L41.9735451,35.0815315 C42.6477275,35.3349337 43.3226412,35.5854781 43.9959018,35.8318867 L44.8028683,36.1255098 C46.2802924,36.6598794 47.7450983,37.1717565 49.1718948,37.6475303 C62.7586145,42.1589323 65.4033941,48.2409706 65.6325447,48.9331963 L70.6499875,61.2452659 L287.755838,59.745869 C288.203439,59.8109939 288.605137,60.0558054 288.868173,60.4237728 C289.150739,60.7784405 289.265675,61.2381868 289.183255,61.684101 L277.424966,143.71854 C277.310296,144.541997 276.604569,145.153899 275.773172,145.150731 L110.383743,165.150779 C109.698357,165.149337 109.0825,164.731839 108.827429,164.095684 L61.8181423,48.4605732 L61.3407453,48.4605732 C59.7223693,46.6369166 55.9986725,43.4622263 48.0882035,40.8222206 C46.886031,40.4220751 45.6637368,39.9994407 44.4344197,39.5614764 L43.6139783,39.2673077 C43.4771125,39.2179273 43.3401961,39.1683772 43.2032468,39.1186674 L42.3813012,38.8185693 L42.3813012,38.8185693 L41.1487937,38.3622625 L41.1487937,38.3622625 L40.3286536,38.0546391 L40.3286536,38.0546391 L39.5107451,37.7448304 C28.8961763,33.7051558 19.0659357,29.2310206 18.5468749,28.9827741 C18.1329424,28.8155029 17.8111251,28.4780296 17.6636904,28.0566239 C17.4759986,27.5406312 17.5506815,26.9656177 17.8639571,26.5146908 C18.1772326,26.0637639 18.6900474,25.7931367 19.2391006,25.7885843 Z M122.25196,79.0696669 L110.650073,80.9997005 L122.45179,151.81076 L134.041922,149.880726 L122.25196,79.0696669 Z M156.940074,79.2344256 L145.232394,80.2935905 L151.086234,144.74966 L162.793913,143.690495 L156.940074,79.2344256 Z M192.815412,79.5874806 L181.060714,79.5874806 L181.060714,138.429976 L192.815412,138.429976 L192.815412,79.5874806 Z M216.559902,79.1285091 L210.729572,131.757237 L222.401987,133.063541 L228.244072,80.4230441 L216.559902,79.1285091 Z M251.248016,78.8107597 L239.575601,125.625849 L250.977658,128.473826 L262.650073,81.6587365 L251.248016,78.8107597 Z" id="形状结合" fill="url(#linearGradient-20)"></path>
            <path d="M48.2027788,36.1962434 L19.6401141,24.5143379 C17.6357092,23.6313856 15.3100185,23.9057874 13.5661475,25.2309884 C11.8222766,26.5561894 10.9349712,28.7234048 11.2487874,30.8910679 C11.5626035,33.0587309 13.0280996,34.8853274 15.0761984,35.6615587 L44.3692806,47.6442243 L48.2027788,36.1962434 Z" id="路径" fill="url(#linearGradient-21)"></path>
        </g>
        <g id="人物" transform="translate(703.402683, 602.076352) scale(-1, -1) translate(-703.402683, -602.076352) translate(598.087404, 380.000000)" fill-rule="nonzero">
            <path d="M75.7179623,422.771372 C79.0738503,417.363593 80.441653,409.251923 78.739852,405.052941 C77.038051,400.85396 71.9008385,378.896784 88.9029442,372.638074 C105.90505,366.379364 119.209317,380.884938 116.322617,397.704723 C113.435917,414.524508 111.718211,423.844976 107.256948,424.441422 C102.795684,425.037868 101.027072,430.854054 100.048934,434.408873 C99.0707959,437.963693 80.1792258,427.622469 80.1792258,427.622469 L75.7179623,426.159187 L75.7179623,422.771372 Z" id="路径" fill="#EBB0B0" transform="translate(96.217962, 403.152704) scale(1, -1) translate(-96.217962, -403.152704)"></path>
            <path d="M110.768431,390.351071 C127.550152,392.555424 124.78284,406.942831 120.289069,414.551784 C115.795298,422.160736 115.562169,419.621782 109.356102,423.457897 C109.356102,423.457897 108.357084,421.919874 106.676944,432.581899 L103.675914,433.517794 C102.558501,433.810446 104.130787,431.264587 102.539076,429.91206 C100.947365,428.559533 95.6336213,431.952715 97.6996305,436.698424 C99.7656396,441.444132 99.7495617,440.099515 99.7495617,440.099515 C99.7495617,440.099515 95.4889203,444.89268 93.0048859,444.054272 C90.5208516,443.215863 76.639668,442.197443 76.0206691,437.926306 C75.4016702,433.655168 70.9494431,428.668663 71.8337272,417.215686 C72.7180113,405.76271 85.7663044,394.759778 93.3585995,392.555424 C100.950895,390.351071 106.580362,389.800949 110.768431,390.351071 Z" id="路径" fill="#131322" transform="translate(97.717962, 417.152704) scale(1, -1) translate(-97.717962, -417.152704)"></path>
            <path d="M149.741125,30.0543646 C149.918462,36.7852498 148.411095,40.1506924 150.605644,43.4171514 C152.800193,46.6836104 161.917783,49.6858623 166.358881,47.4768086 C171.989066,44.6762884 181.393858,39.2202716 184.071723,37.7416283 C186.749589,36.262985 204.904427,25.6286423 205.358534,18.9242079 C205.81264,12.2197736 195.294642,10.2287667 182.892115,14.8809962 C170.489588,19.5332257 153.221369,27.7117525 153.221369,27.7117525 L149.741125,30.0543646 Z" id="路径" fill="#333333" transform="translate(177.386270, 30.291430) rotate(33.000000) translate(-177.386270, -30.291430)"></path>
            <path d="M2.80376234,22.5829732 C2.98109964,29.3138585 1.47373264,32.6793011 3.66828165,35.9457601 C5.86283066,39.2122191 14.9804209,42.214471 19.421518,40.0054173 C25.0517037,37.2048971 34.4564955,31.7488803 37.1343607,30.270237 C39.812226,28.7915936 57.9670644,18.157251 58.4211711,11.4528166 C58.8752778,4.74838227 48.3572797,2.75737539 35.9547527,7.40960488 C23.5522257,12.0618344 6.28400673,20.2403612 6.28400673,20.2403612 L2.80376234,22.5829732 Z" id="路径" fill="#333333" transform="translate(30.448907, 22.820039) rotate(-9.000000) translate(-30.448907, -22.820039)"></path>
            <path d="M118.033775,26.1527037 C103.892716,51.6103834 93.962891,78.1849713 88.244301,105.876467 C79.666416,147.413711 65.7179623,212.617938 65.7179623,221.8829 C69.6685777,229.997797 76.416396,231.492012 84.1461324,225.491133 C91.8758688,219.490255 111.955081,144.954336 114.994428,125.415402 C117.237086,114.98134 151.019115,82.6634246 168.717962,39.6764847 C168.614883,32.3542452 151.720154,27.8463182 118.033775,26.1527037 Z" id="路径-130" fill="url(#linearGradient-22)" transform="translate(117.217962, 127.652704) scale(-1, -1) translate(-117.217962, -127.652704)"></path>
            <path d="M6.7179623,25.9543416 C9.69524753,78.6973276 36.8861183,142.430115 88.2905745,217.152704 C95.455129,214.096329 99.1610016,220.390704 102.717962,204.897443 C99.6755663,188.351936 80.9800533,135.5359 69.3223897,118.143353 C71.8803616,109.987147 65.8076708,58.9402117 61.2557548,25.9543416 C52.4263236,24.8854911 34.2470595,24.8854911 6.7179623,25.9543416 Z" id="路径-129" fill="url(#linearGradient-23)" transform="translate(54.717962, 121.152704) scale(-1, -1) translate(-54.717962, -121.152704)"></path>
            <path d="M77.3324591,211.18599 C85.3725801,212.080597 108.807519,211.18599 126.028993,260.352329 C133.959461,282.993368 117.860244,334.51568 132.309682,365.590542 C137.403591,376.543094 127.809383,383.162015 117.44473,383.162015 C104.922934,383.162015 42.996111,394.116445 36.6075327,374.0949 C28.0511204,360.582981 36.2237912,292.344577 36.6075327,286.075165 C38.8148331,250.013188 65.1670852,209.832374 77.3324591,211.18599 Z" id="路径" fill="url(#linearGradient-24)" transform="translate(83.217962, 298.652704) scale(1, -1) translate(-83.217962, -298.652704)"></path>
            <polygon id="矩形" fill="#9B643B" transform="translate(190.677377, 338.864842) rotate(150.000000) translate(-190.677377, -338.864842)" points="190.149932 336.829528 191.204821 336.829528 191.204821 340.900157 190.149932 340.900157"></polygon>
            <path d="M113.501718,319.653525 C122.694096,288.433239 132.75411,271.39653 143.681761,268.543398 C160.073237,264.263701 166.368235,276.060374 166.368235,287.319147 C166.368235,298.577919 160.796682,315.176074 139.934977,336.763701 C119.073272,358.351329 96.2852188,369.771369 78.7233442,369.771369 C67.8843283,369.401187 70.0776838,359.198709 70.0776838,351.452942 C70.0776838,346.289097 84.552362,335.689292 113.501718,319.653525 Z" id="路径-141" fill="url(#linearGradient-25)" transform="translate(118.131926, 318.708203) rotate(178.000000) translate(-118.131926, -318.708203)"></path>
        </g>
        <path d="M579.593593,393.836696 C516.387195,401.303446 467.124318,391.377944 431.804962,364.060191 C403.863408,341.471526 412.310716,296.496554 438.896981,296.496554 C465.483246,296.496554 481.607661,318.676608 481.607661,353.136961 C481.607661,387.597314 464.240539,427.688563 438.896981,445.400626" id="路径-20" stroke="url(#linearGradient-26)" stroke-width="2" stroke-linecap="round" transform="translate(497.043922, 370.948590) rotate(-34.000000) translate(-497.043922, -370.948590)"></path>
        <path d="M454.701933,521.40733 C446.174178,510.382338 435.638404,510.382338 423.094609,521.40733 C416.460555,527.625596 412.085119,537.570026 402.254447,537.570026 C433.083685,548.318246 450.566181,542.930681 454.701933,521.40733 Z" id="路径-18" fill="url(#linearGradient-27)" fill-rule="nonzero" transform="translate(428.478190, 528.039121) rotate(-14.000000) translate(-428.478190, -528.039121)"></path>
        <path d="M466.041503,508.526392 C462.880511,514.683876 449.706978,520.841361 426.520905,526.998845" id="路径-19" stroke="url(#linearGradient-28)" stroke-width="2" stroke-linecap="round" transform="translate(446.281204, 517.762619) rotate(-14.000000) translate(-446.281204, -517.762619)"></path>
    </g>
</svg>